<svg width="698" height="36" viewBox="0 0 698 36" fill="none" xmlns="http://www.w3.org/2000/svg">
<path d="M12.1719 0.445312L17.293 6.3457L22.4326 0.445312H34.5859V28.7598H22.043V14.584L17.293 20.0576L12.543 14.584V28.7598H0V0.445312H12.1719ZM50.877 3.22852C50.877 4.11914 50.5553 4.88607 49.9121 5.5293C49.2812 6.17253 48.5267 6.49414 47.6484 6.49414C46.7578 6.49414 45.9909 6.17253 45.3477 5.5293C44.7044 4.88607 44.3828 4.11914 44.3828 3.22852C44.3828 2.35026 44.7044 1.5957 45.3477 0.964844C45.9909 0.321615 46.7578 0 47.6484 0C48.5267 0 49.2812 0.31543 49.9121 0.946289C50.5553 1.55241 50.877 2.31315 50.877 3.22852ZM39.4844 6.41992C40.1895 6.82812 41.0553 7.14355 42.082 7.36621C43.1087 7.58887 44.2035 7.7002 45.3662 7.7002C46.4548 7.7002 47.4814 7.59505 48.4463 7.38477C49.4111 7.16211 50.2461 6.84049 50.9512 6.41992V28.7598H39.4844V6.41992ZM81.6963 28.7598H70.8604V15.623C70.8604 14.8066 70.6934 14.1572 70.3594 13.6748C70.0254 13.1924 69.4873 12.9512 68.7451 12.9512C68.4359 12.9512 68.0895 13.0192 67.7061 13.1553C67.3226 13.2913 66.9824 13.4645 66.6855 13.6748V28.7598H55.2188V6.41992H66.6855V9.22168C67.7493 8.14551 68.8255 7.37858 69.9141 6.9209C71.015 6.46322 72.2458 6.23438 73.6064 6.23438C76.2907 6.23438 78.307 6.98275 79.6553 8.47949C81.016 9.97624 81.6963 12.0482 81.6963 14.6953V28.7598ZM97.2266 19.8721C98.0059 19.8721 98.6243 19.6432 99.082 19.1855C99.5397 18.7279 99.7686 18.1094 99.7686 17.3301C99.7686 16.5508 99.5335 15.9323 99.0635 15.4746C98.6058 15.0046 97.9873 14.7695 97.208 14.7695C96.8369 14.7695 96.4967 14.8314 96.1875 14.9551C95.8906 15.0788 95.6309 15.2581 95.4082 15.4932C95.1979 15.7158 95.0309 15.988 94.9072 16.3096C94.7835 16.6188 94.7217 16.959 94.7217 17.3301C94.7217 18.0846 94.9505 18.6969 95.4082 19.167C95.8783 19.637 96.4844 19.8721 97.2266 19.8721ZM97.2266 5.95605C99.0078 5.95605 100.647 6.24674 102.144 6.82812C103.653 7.39714 104.945 8.19499 106.021 9.22168C107.11 10.2484 107.957 11.473 108.563 12.8955C109.17 14.318 109.473 15.8704 109.473 17.5527C109.473 19.2227 109.17 20.7627 108.563 22.1729C107.97 23.583 107.135 24.8014 106.059 25.8281C104.982 26.8548 103.69 27.6589 102.181 28.2402C100.684 28.8092 99.0326 29.0938 97.2266 29.0938C94.9505 29.0938 92.8724 28.6175 90.9922 27.665C89.1367 26.7126 87.6771 25.3643 86.6133 23.6201C85.5618 21.8636 85.0361 19.8411 85.0361 17.5527C85.0361 15.3014 85.5495 13.2913 86.5762 11.5225C87.6152 9.75358 89.0563 8.38672 90.8994 7.42188C92.7425 6.44466 94.8516 5.95605 97.2266 5.95605ZM134.15 11.6152C134.15 13.2604 133.649 14.584 132.647 15.5859C131.658 16.5879 130.384 17.0889 128.825 17.0889C127.056 17.0889 125.51 16.4085 124.187 15.0479C123.593 15.5674 123.16 16.2663 122.888 17.1445C122.616 18.0104 122.479 19.0433 122.479 20.2432V28.7598H111.013V6.41992H122.479V11.1699H122.554C123.259 9.54948 124.143 8.32487 125.207 7.49609C126.271 6.65495 127.477 6.23438 128.825 6.23438C130.347 6.23438 131.615 6.74154 132.629 7.75586C133.643 8.75781 134.15 10.0443 134.15 11.6152ZM161.778 0.445312L164.933 9.83398H165.007L168.161 0.445312H180.667L171.056 28.7598H158.902L149.272 0.445312H161.778ZM194.639 3.22852C194.639 4.11914 194.317 4.88607 193.674 5.5293C193.043 6.17253 192.288 6.49414 191.41 6.49414C190.52 6.49414 189.753 6.17253 189.109 5.5293C188.466 4.88607 188.145 4.11914 188.145 3.22852C188.145 2.35026 188.466 1.5957 189.109 0.964844C189.753 0.321615 190.52 0 191.41 0C192.288 0 193.043 0.31543 193.674 0.946289C194.317 1.55241 194.639 2.31315 194.639 3.22852ZM183.246 6.41992C183.951 6.82812 184.817 7.14355 185.844 7.36621C186.87 7.58887 187.965 7.7002 189.128 7.7002C190.216 7.7002 191.243 7.59505 192.208 7.38477C193.173 7.16211 194.008 6.84049 194.713 6.41992V28.7598H183.246V6.41992ZM216.032 13.5635C215.179 12.7842 214.294 12.1842 213.379 11.7637C212.476 11.3431 211.616 11.1328 210.8 11.1328C210.243 11.1328 209.792 11.2565 209.445 11.5039C209.099 11.7389 208.926 12.0544 208.926 12.4502C208.926 13.0439 209.179 13.5016 209.687 13.8232C209.946 13.984 210.317 14.1449 210.8 14.3057C211.295 14.4665 211.907 14.6273 212.637 14.7881C214.975 15.3324 216.688 16.1797 217.776 17.3301C218.865 18.4681 219.409 19.9092 219.409 21.6533C219.409 23.9788 218.475 25.7972 216.607 27.1084C214.74 28.432 212.327 29.0938 209.371 29.0938C208.48 29.0938 207.54 29.0381 206.551 28.9268C205.561 28.8154 204.504 28.6546 203.378 28.4443C202.252 28.234 201.17 27.9743 200.131 27.665C199.092 27.3434 198.084 26.9847 197.106 26.5889L199.667 20.3174C200.384 21.3317 201.312 22.1543 202.45 22.7852C203.588 23.4036 204.708 23.7129 205.809 23.7129C206.477 23.7129 207.008 23.5645 207.404 23.2676C207.812 22.9707 208.017 22.5872 208.017 22.1172C208.017 21.5358 207.769 21.0781 207.274 20.7441C206.792 20.4102 206.044 20.1071 205.029 19.835C202.32 19.1299 200.459 18.1774 199.444 16.9775C198.418 15.7653 197.904 14.4355 197.904 12.9883C197.904 10.7865 198.851 9.06087 200.743 7.81152C202.648 6.57454 205.339 5.95605 208.814 5.95605C210.719 5.95605 212.507 6.11686 214.177 6.43848C215.859 6.76009 217.393 7.23633 218.778 7.86719L216.032 13.5635ZM232.769 6.41992V18.5918C232.769 20.5339 233.461 21.5049 234.847 21.5049C235.317 21.5049 235.725 21.3997 236.071 21.1895C236.43 20.9792 236.721 20.6885 236.943 20.3174V6.41992H248.429V28.7598H237.444V24.8447H237.37C236.232 26.2796 235.069 27.3249 233.882 27.9805C232.719 28.6237 231.334 28.9453 229.726 28.9453C227.363 28.9453 225.47 28.2402 224.048 26.8301C222.638 25.4199 221.933 23.5088 221.933 21.0967V6.41992H232.769ZM275.537 28.7598H264.07V27.0898C263.254 27.696 262.345 28.1536 261.343 28.4629C260.304 28.7845 259.351 28.9453 258.485 28.9453C256.803 28.9453 255.381 28.3949 254.218 27.2939C253.08 26.1807 252.511 24.7829 252.511 23.1006C252.511 21.208 253.216 19.6556 254.626 18.4434C256.036 17.2188 257.879 16.6064 260.155 16.6064C260.823 16.6064 261.485 16.6497 262.141 16.7363C262.796 16.8229 263.439 16.9528 264.07 17.126C264.07 16.5941 263.959 16.124 263.736 15.7158C263.526 15.2952 263.223 14.9489 262.827 14.6768C262.431 14.3923 261.955 14.182 261.398 14.0459C260.842 13.8975 260.217 13.8232 259.524 13.8232C258.424 13.8232 257.36 13.9655 256.333 14.25C255.838 14.3861 255.319 14.5716 254.774 14.8066C254.243 15.0293 253.68 15.2952 253.086 15.6045V8.8877C253.296 8.764 253.587 8.61556 253.958 8.44238C254.329 8.25684 254.793 8.04655 255.35 7.81152C255.906 7.5765 256.494 7.36621 257.112 7.18066C257.743 6.98275 258.417 6.81576 259.135 6.67969C260.557 6.38281 262.209 6.23438 264.089 6.23438C268.097 6.23438 271.004 7.09408 272.81 8.81348C274.628 10.5205 275.537 12.9883 275.537 16.2168V28.7598ZM262.289 24.4365C262.982 24.4365 263.576 24.2324 264.07 23.8242V20.707C263.674 20.5833 263.34 20.4967 263.068 20.4473C262.809 20.3854 262.512 20.3545 262.178 20.3545C261.497 20.3545 260.947 20.5339 260.526 20.8926C260.106 21.2389 259.896 21.709 259.896 22.3027C259.896 22.9089 260.124 23.416 260.582 23.8242C261.04 24.2324 261.609 24.4365 262.289 24.4365ZM291.271 0.445312V28.7598H279.805V0.445312H291.271ZM321.516 0.445312V28.7598H308.991V0.445312H321.516ZM352.929 28.7598H342.093V15.623C342.093 14.8066 341.926 14.1572 341.592 13.6748C341.258 13.1924 340.72 12.9512 339.978 12.9512C339.668 12.9512 339.322 13.0192 338.938 13.1553C338.555 13.2913 338.215 13.4645 337.918 13.6748V28.7598H326.451V6.41992H337.918V9.22168C338.982 8.14551 340.058 7.37858 341.146 6.9209C342.247 6.46322 343.478 6.23438 344.839 6.23438C347.523 6.23438 349.539 6.98275 350.888 8.47949C352.248 9.97624 352.929 12.0482 352.929 14.6953V28.7598ZM374.916 6.41992V12.6914H370.129V17.5342C370.129 18.2887 370.308 18.8763 370.667 19.2969C371.038 19.7051 371.582 19.9092 372.3 19.9092C373.376 19.9092 374.291 19.3773 375.046 18.3135V27.1641C374.65 27.4362 374.199 27.6836 373.691 27.9062C373.197 28.1165 372.652 28.3021 372.059 28.4629C370.846 28.7845 369.646 28.9453 368.459 28.9453C366.715 28.9453 365.094 28.5928 363.598 27.8877C362.113 27.195 360.913 26.1436 359.998 24.7334C359.107 23.348 358.662 21.7214 358.662 19.8535V12.6914H353.986L370.129 0.0371094V6.41992H374.916ZM389.314 5.95605C391.615 5.95605 393.687 6.45703 395.53 7.45898C397.386 8.44857 398.821 9.89583 399.835 11.8008C400.862 13.7181 401.375 15.889 401.375 18.3135V19.0371H389.648C389.846 19.5938 390.125 20.1009 390.483 20.5586C390.842 21.0039 391.263 21.3874 391.745 21.709C392.228 22.0182 392.753 22.2594 393.322 22.4326C393.904 22.5934 394.522 22.6738 395.178 22.6738C395.784 22.6738 396.384 22.6182 396.978 22.5068C397.571 22.3955 398.128 22.2409 398.647 22.043C399.179 21.8327 399.674 21.5791 400.132 21.2822C400.59 20.973 400.998 20.6266 401.356 20.2432V24.1582C400.033 25.8776 398.474 27.1331 396.681 27.9248C394.887 28.7041 392.834 29.0938 390.521 29.0938C389.234 29.1061 388.016 28.9886 386.865 28.7412C385.727 28.4814 384.676 28.1104 383.711 27.6279C382.746 27.1455 381.88 26.5579 381.113 25.8652C380.359 25.1602 379.715 24.3747 379.184 23.5088C378.664 22.6305 378.268 21.6719 377.996 20.6328C377.724 19.5938 377.594 18.4928 377.606 17.3301C377.606 15.1406 378.095 13.1862 379.072 11.4668C380.062 9.72266 381.441 8.37435 383.21 7.42188C385.004 6.44466 387.038 5.95605 389.314 5.95605ZM388.962 15.1221H394.361C394.324 14.0335 394.052 13.1738 393.545 12.543C393.05 11.8997 392.388 11.5781 391.56 11.5781C390.817 11.5781 390.199 11.8936 389.704 12.5244C389.209 13.1305 388.962 13.916 388.962 14.8809V15.1221ZM425.979 11.6152C425.979 13.2604 425.478 14.584 424.476 15.5859C423.486 16.5879 422.212 17.0889 420.653 17.0889C418.884 17.0889 417.338 16.4085 416.015 15.0479C415.421 15.5674 414.988 16.2663 414.716 17.1445C414.444 18.0104 414.308 19.0433 414.308 20.2432V28.7598H402.841V6.41992H414.308V11.1699H414.382C415.087 9.54948 415.971 8.32487 417.035 7.49609C418.099 6.65495 419.305 6.23438 420.653 6.23438C422.175 6.23438 423.443 6.74154 424.457 7.75586C425.471 8.75781 425.979 10.0443 425.979 11.6152ZM443.643 0C444.508 0 445.424 0.0804036 446.389 0.241211C447.366 0.389648 448.355 0.587565 449.357 0.834961V12.0977C448.751 11.3555 448.164 10.8298 447.595 10.5205C447.026 10.2113 446.407 10.0566 445.739 10.0566C444.873 10.0566 444.174 10.3288 443.643 10.873C443.123 11.4049 442.863 12.1719 442.863 13.1738H449.357V17.8867H442.863V28.7598H431.378V17.8867H428.91V13.1738H431.378V13.0439C431.378 8.93717 432.491 5.73958 434.718 3.45117C436.944 1.15039 439.919 0 443.643 0ZM474.332 28.7598H462.865V27.0898C462.049 27.696 461.14 28.1536 460.138 28.4629C459.099 28.7845 458.146 28.9453 457.28 28.9453C455.598 28.9453 454.175 28.3949 453.013 27.2939C451.875 26.1807 451.306 24.7829 451.306 23.1006C451.306 21.208 452.011 19.6556 453.421 18.4434C454.831 17.2188 456.674 16.6064 458.95 16.6064C459.618 16.6064 460.28 16.6497 460.936 16.7363C461.591 16.8229 462.234 16.9528 462.865 17.126C462.865 16.5941 462.754 16.124 462.531 15.7158C462.321 15.2952 462.018 14.9489 461.622 14.6768C461.226 14.3923 460.75 14.182 460.193 14.0459C459.637 13.8975 459.012 13.8232 458.319 13.8232C457.218 13.8232 456.155 13.9655 455.128 14.25C454.633 14.3861 454.114 14.5716 453.569 14.8066C453.037 15.0293 452.475 15.2952 451.881 15.6045V8.8877C452.091 8.764 452.382 8.61556 452.753 8.44238C453.124 8.25684 453.588 8.04655 454.145 7.81152C454.701 7.5765 455.289 7.36621 455.907 7.18066C456.538 6.98275 457.212 6.81576 457.93 6.67969C459.352 6.38281 461.004 6.23438 462.884 6.23438C466.892 6.23438 469.799 7.09408 471.604 8.81348C473.423 10.5205 474.332 12.9883 474.332 16.2168V28.7598ZM461.084 24.4365C461.777 24.4365 462.37 24.2324 462.865 23.8242V20.707C462.469 20.5833 462.135 20.4967 461.863 20.4473C461.604 20.3854 461.307 20.3545 460.973 20.3545C460.292 20.3545 459.742 20.5339 459.321 20.8926C458.901 21.2389 458.69 21.709 458.69 22.3027C458.69 22.9089 458.919 23.416 459.377 23.8242C459.835 24.2324 460.404 24.4365 461.084 24.4365ZM490.976 5.95605C492.349 5.95605 493.753 6.07357 495.188 6.30859C496.622 6.54362 497.995 6.87142 499.307 7.29199V17.0889C498.181 16.557 497.074 16.1549 495.985 15.8828C494.909 15.5983 493.926 15.4561 493.035 15.4561C491.947 15.4561 491.093 15.6292 490.475 15.9756C489.856 16.3219 489.547 16.8105 489.547 17.4414C489.547 18.1217 489.875 18.6536 490.53 19.0371C491.198 19.4082 492.2 19.5938 493.536 19.5938C494.08 19.5938 494.612 19.569 495.132 19.5195C495.664 19.4577 496.196 19.3773 496.728 19.2783C497.259 19.167 497.742 19.0433 498.175 18.9072C498.608 18.7588 498.985 18.598 499.307 18.4248V28.1104C498.193 28.432 497.024 28.6732 495.8 28.834C494.588 29.0072 493.363 29.0938 492.126 29.0938C487.66 29.0938 484.197 28.0176 481.735 25.8652C479.286 23.7129 478.062 20.9792 478.062 17.6641C478.062 14.3242 479.249 11.541 481.624 9.31445C483.987 7.07552 487.104 5.95605 490.976 5.95605ZM514.447 5.95605C516.748 5.95605 518.82 6.45703 520.663 7.45898C522.519 8.44857 523.953 9.89583 524.968 11.8008C525.994 13.7181 526.508 15.889 526.508 18.3135V19.0371H514.781C514.979 19.5938 515.257 20.1009 515.616 20.5586C515.975 21.0039 516.396 21.3874 516.878 21.709C517.36 22.0182 517.886 22.2594 518.455 22.4326C519.036 22.5934 519.655 22.6738 520.311 22.6738C520.917 22.6738 521.517 22.6182 522.11 22.5068C522.704 22.3955 523.261 22.2409 523.78 22.043C524.312 21.8327 524.807 21.5791 525.265 21.2822C525.722 20.973 526.131 20.6266 526.489 20.2432V24.1582C525.166 25.8776 523.607 27.1331 521.813 27.9248C520.02 28.7041 517.966 29.0938 515.653 29.0938C514.367 29.1061 513.148 28.9886 511.998 28.7412C510.86 28.4814 509.809 28.1104 508.844 27.6279C507.879 27.1455 507.013 26.5579 506.246 25.8652C505.492 25.1602 504.848 24.3747 504.316 23.5088C503.797 22.6305 503.401 21.6719 503.129 20.6328C502.857 19.5938 502.727 18.4928 502.739 17.3301C502.739 15.1406 503.228 13.1862 504.205 11.4668C505.195 9.72266 506.574 8.37435 508.343 7.42188C510.136 6.44466 512.171 5.95605 514.447 5.95605ZM514.095 15.1221H519.494C519.457 14.0335 519.185 13.1738 518.678 12.543C518.183 11.8997 517.521 11.5781 516.692 11.5781C515.95 11.5781 515.332 11.8936 514.837 12.5244C514.342 13.1305 514.095 13.916 514.095 14.8809V15.1221ZM557.531 0.445312C560.549 0.445312 563.24 1.03906 565.603 2.22656C567.965 3.41406 569.796 5.13965 571.095 7.40332C572.394 9.65462 573.043 12.0729 573.043 14.6582C573.043 17.293 572.375 19.7298 571.039 21.9688C569.728 24.1829 567.866 25.8714 565.454 27.0342C563.054 28.1846 560.321 28.7598 557.253 28.7598H543.374V0.445312H557.531ZM555.898 17.9238H556.232C557.742 17.9238 558.83 17.6641 559.498 17.1445C560.166 16.6126 560.5 15.7467 560.5 14.5469C560.5 13.4954 560.178 12.6914 559.535 12.1348C558.904 11.5658 557.933 11.2812 556.622 11.2812H555.898V17.9238ZM587.256 5.95605C589.557 5.95605 591.629 6.45703 593.472 7.45898C595.327 8.44857 596.762 9.89583 597.776 11.8008C598.803 13.7181 599.316 15.889 599.316 18.3135V19.0371H587.59C587.788 19.5938 588.066 20.1009 588.425 20.5586C588.784 21.0039 589.204 21.3874 589.687 21.709C590.169 22.0182 590.695 22.2594 591.264 22.4326C591.845 22.5934 592.464 22.6738 593.119 22.6738C593.725 22.6738 594.325 22.6182 594.919 22.5068C595.513 22.3955 596.069 22.2409 596.589 22.043C597.121 21.8327 597.616 21.5791 598.073 21.2822C598.531 20.973 598.939 20.6266 599.298 20.2432V24.1582C597.974 25.8776 596.416 27.1331 594.622 27.9248C592.828 28.7041 590.775 29.0938 588.462 29.0938C587.175 29.1061 585.957 28.9886 584.807 28.7412C583.669 28.4814 582.617 28.1104 581.652 27.6279C580.688 27.1455 579.822 26.5579 579.055 25.8652C578.3 25.1602 577.657 24.3747 577.125 23.5088C576.605 22.6305 576.21 21.6719 575.938 20.6328C575.665 19.5938 575.535 18.4928 575.548 17.3301C575.548 15.1406 576.036 13.1862 577.014 11.4668C578.003 9.72266 579.382 8.37435 581.151 7.42188C582.945 6.44466 584.98 5.95605 587.256 5.95605ZM586.903 15.1221H592.303C592.266 14.0335 591.993 13.1738 591.486 12.543C590.992 11.8997 590.33 11.5781 589.501 11.5781C588.759 11.5781 588.14 11.8936 587.646 12.5244C587.151 13.1305 586.903 13.916 586.903 14.8809V15.1221ZM619.856 13.5635C619.003 12.7842 618.118 12.1842 617.203 11.7637C616.3 11.3431 615.44 11.1328 614.624 11.1328C614.067 11.1328 613.616 11.2565 613.27 11.5039C612.923 11.7389 612.75 12.0544 612.75 12.4502C612.75 13.0439 613.004 13.5016 613.511 13.8232C613.771 13.984 614.142 14.1449 614.624 14.3057C615.119 14.4665 615.731 14.6273 616.461 14.7881C618.799 15.3324 620.512 16.1797 621.601 17.3301C622.689 18.4681 623.233 19.9092 623.233 21.6533C623.233 23.9788 622.299 25.7972 620.432 27.1084C618.564 28.432 616.152 29.0938 613.195 29.0938C612.305 29.0938 611.365 29.0381 610.375 28.9268C609.385 28.8154 608.328 28.6546 607.202 28.4443C606.076 28.234 604.994 27.9743 603.955 27.665C602.916 27.3434 601.908 26.9847 600.931 26.5889L603.491 20.3174C604.209 21.3317 605.136 22.1543 606.274 22.7852C607.412 23.4036 608.532 23.7129 609.633 23.7129C610.301 23.7129 610.833 23.5645 611.229 23.2676C611.637 22.9707 611.841 22.5872 611.841 22.1172C611.841 21.5358 611.593 21.0781 611.099 20.7441C610.616 20.4102 609.868 20.1071 608.854 19.835C606.145 19.1299 604.283 18.1774 603.269 16.9775C602.242 15.7653 601.729 14.4355 601.729 12.9883C601.729 10.7865 602.675 9.06087 604.567 7.81152C606.472 6.57454 609.163 5.95605 612.639 5.95605C614.544 5.95605 616.331 6.11686 618.001 6.43848C619.683 6.76009 621.217 7.23633 622.603 7.86719L619.856 13.5635ZM637.688 3.22852C637.688 4.11914 637.366 4.88607 636.723 5.5293C636.092 6.17253 635.337 6.49414 634.459 6.49414C633.568 6.49414 632.801 6.17253 632.158 5.5293C631.515 4.88607 631.193 4.11914 631.193 3.22852C631.193 2.35026 631.515 1.5957 632.158 0.964844C632.801 0.321615 633.568 0 634.459 0C635.337 0 636.092 0.31543 636.723 0.946289C637.366 1.55241 637.688 2.31315 637.688 3.22852ZM626.295 6.41992C627 6.82812 627.866 7.14355 628.893 7.36621C629.919 7.58887 631.014 7.7002 632.177 7.7002C633.265 7.7002 634.292 7.59505 635.257 7.38477C636.222 7.16211 637.057 6.84049 637.762 6.41992V28.7598H626.295V6.41992ZM666.8 24.0654C666.8 27.8011 665.829 30.5596 663.887 32.3408C661.945 34.1344 658.92 35.0312 654.813 35.0312C652.203 35.0312 649.773 34.7529 647.521 34.1963C645.283 33.652 643.31 32.8542 641.603 31.8027V21.6533C644.349 24.3128 647.392 25.6426 650.731 25.6426C652.228 25.6426 653.372 25.4014 654.164 24.9189C654.968 24.4242 655.37 23.7314 655.37 22.8408C655.37 22.6182 655.352 22.4017 655.314 22.1914C654.783 22.5378 654.096 22.8285 653.255 23.0635C652.426 23.2861 651.542 23.3975 650.602 23.3975C647.806 23.3975 645.592 22.6367 643.959 21.1152C642.339 19.569 641.528 17.5094 641.528 14.9365C641.528 13.3532 641.868 11.9183 642.549 10.6318C643.229 9.32064 644.163 8.34961 645.351 7.71875C646.538 7.08789 647.849 6.7168 649.284 6.60547C650.014 6.54362 650.818 6.50033 651.696 6.47559C652.587 6.45085 653.558 6.43229 654.609 6.41992H666.8V24.0654ZM653.719 18.0352C654.387 18.0352 654.919 17.8743 655.314 17.5527V12.7285H654.999C653.762 12.7285 652.822 12.945 652.179 13.3779C651.535 13.8109 651.214 14.5283 651.214 15.5303C651.214 16.3096 651.443 16.9219 651.9 17.3672C652.358 17.8125 652.964 18.0352 653.719 18.0352ZM697.378 28.7598H686.542V15.623C686.542 14.8066 686.375 14.1572 686.041 13.6748C685.707 13.1924 685.169 12.9512 684.427 12.9512C684.118 12.9512 683.771 13.0192 683.388 13.1553C683.004 13.2913 682.664 13.4645 682.367 13.6748V28.7598H670.9V6.41992H682.367V9.22168C683.431 8.14551 684.507 7.37858 685.596 6.9209C686.697 6.46322 687.927 6.23438 689.288 6.23438C691.972 6.23438 693.989 6.98275 695.337 8.47949C696.698 9.97624 697.378 12.0482 697.378 14.6953V28.7598Z" fill="#0C3E35"/>
</svg>
